<mxfile host="app.diagrams.net" modified="2024-05-29T19:16:59.626Z" agent="Mozilla/5.0 (Windows NT 10.0; Win64; x64) AppleWebKit/537.36 (KHTML, like Gecko) Chrome/122.0.0.0 YaBrowser/24.4.0.0 Safari/537.36" etag="TNOxM6RWjq1m2I086MbP" version="24.4.10" type="device">
  <diagram name="Страница — 1" id="KmvHMEfNf-FMxy9RuPTy">
    <mxGraphModel dx="1631" dy="942" grid="1" gridSize="10" guides="1" tooltips="1" connect="1" arrows="1" fold="1" page="1" pageScale="1" pageWidth="827" pageHeight="1169" math="0" shadow="0">
      <root>
        <mxCell id="0" />
        <mxCell id="1" parent="0" />
        <mxCell id="y2nHu6ohkHtfhYuhYgqz-35" style="edgeStyle=orthogonalEdgeStyle;rounded=0;orthogonalLoop=1;jettySize=auto;html=1;entryX=0;entryY=0.5;entryDx=0;entryDy=0;" parent="1" source="y2nHu6ohkHtfhYuhYgqz-1" target="y2nHu6ohkHtfhYuhYgqz-34" edge="1">
          <mxGeometry relative="1" as="geometry" />
        </mxCell>
        <mxCell id="y2nHu6ohkHtfhYuhYgqz-1" value="Проверка информации на схожесть с запросом" style="rounded=0;whiteSpace=wrap;html=1;" parent="1" vertex="1">
          <mxGeometry x="730" y="480" width="120" height="60" as="geometry" />
        </mxCell>
        <mxCell id="y2nHu6ohkHtfhYuhYgqz-12" value="Упарвление хранилищем" style="rounded=0;whiteSpace=wrap;html=1;" parent="1" vertex="1">
          <mxGeometry x="350" y="370" width="120" height="60" as="geometry" />
        </mxCell>
        <mxCell id="y2nHu6ohkHtfhYuhYgqz-13" value="" style="endArrow=classic;html=1;rounded=0;entryX=0.25;entryY=0;entryDx=0;entryDy=0;" parent="1" edge="1">
          <mxGeometry width="50" height="50" relative="1" as="geometry">
            <mxPoint x="361" y="280" as="sourcePoint" />
            <mxPoint x="361" y="370" as="targetPoint" />
          </mxGeometry>
        </mxCell>
        <mxCell id="y2nHu6ohkHtfhYuhYgqz-15" value="" style="endArrow=classic;html=1;rounded=0;entryX=0;entryY=0.5;entryDx=0;entryDy=0;" parent="1" target="y2nHu6ohkHtfhYuhYgqz-12" edge="1">
          <mxGeometry width="50" height="50" relative="1" as="geometry">
            <mxPoint x="260" y="400" as="sourcePoint" />
            <mxPoint x="240" y="370" as="targetPoint" />
          </mxGeometry>
        </mxCell>
        <mxCell id="y2nHu6ohkHtfhYuhYgqz-16" value="" style="endArrow=classic;html=1;rounded=0;entryX=0;entryY=0.5;entryDx=0;entryDy=0;" parent="1" target="y2nHu6ohkHtfhYuhYgqz-1" edge="1">
          <mxGeometry width="50" height="50" relative="1" as="geometry">
            <mxPoint x="470" y="399.71" as="sourcePoint" />
            <mxPoint x="610" y="400" as="targetPoint" />
            <Array as="points">
              <mxPoint x="600" y="400" />
              <mxPoint x="600" y="510" />
            </Array>
          </mxGeometry>
        </mxCell>
        <mxCell id="y2nHu6ohkHtfhYuhYgqz-17" value="" style="endArrow=classic;html=1;rounded=0;entryX=0.289;entryY=0.995;entryDx=0;entryDy=0;entryPerimeter=0;" parent="1" edge="1">
          <mxGeometry width="50" height="50" relative="1" as="geometry">
            <mxPoint x="380" y="660" as="sourcePoint" />
            <mxPoint x="380.00000000000006" y="429.99999999999994" as="targetPoint" />
          </mxGeometry>
        </mxCell>
        <mxCell id="y2nHu6ohkHtfhYuhYgqz-19" value="Информация о авиарейсе" style="text;html=1;align=center;verticalAlign=middle;whiteSpace=wrap;rounded=0;" parent="1" vertex="1">
          <mxGeometry x="270" y="370" width="60" height="30" as="geometry" />
        </mxCell>
        <mxCell id="y2nHu6ohkHtfhYuhYgqz-20" value="Массив объектов с информацией о рейсах" style="text;html=1;align=center;verticalAlign=middle;whiteSpace=wrap;rounded=0;" parent="1" vertex="1">
          <mxGeometry x="500" y="360" width="110" height="40" as="geometry" />
        </mxCell>
        <mxCell id="y2nHu6ohkHtfhYuhYgqz-21" value="Система" style="text;html=1;align=center;verticalAlign=middle;whiteSpace=wrap;rounded=0;" parent="1" vertex="1">
          <mxGeometry x="380" y="690" width="80" height="30" as="geometry" />
        </mxCell>
        <mxCell id="y2nHu6ohkHtfhYuhYgqz-27" value="" style="endArrow=classic;html=1;rounded=0;entryX=0.08;entryY=-0.007;entryDx=0;entryDy=0;entryPerimeter=0;" parent="1" edge="1">
          <mxGeometry width="50" height="50" relative="1" as="geometry">
            <mxPoint x="760" y="390" as="sourcePoint" />
            <mxPoint x="759.5999999999999" y="479.58000000000004" as="targetPoint" />
          </mxGeometry>
        </mxCell>
        <mxCell id="y2nHu6ohkHtfhYuhYgqz-28" value="Алгоритм работы с базой данных" style="text;html=1;align=center;verticalAlign=middle;whiteSpace=wrap;rounded=0;" parent="1" vertex="1">
          <mxGeometry x="670" y="400" width="90" height="40" as="geometry" />
        </mxCell>
        <mxCell id="y2nHu6ohkHtfhYuhYgqz-29" value="" style="endArrow=classic;html=1;rounded=0;entryX=0.08;entryY=-0.007;entryDx=0;entryDy=0;entryPerimeter=0;" parent="1" edge="1">
          <mxGeometry width="50" height="50" relative="1" as="geometry">
            <mxPoint x="810" y="390" as="sourcePoint" />
            <mxPoint x="810" y="480" as="targetPoint" />
          </mxGeometry>
        </mxCell>
        <mxCell id="y2nHu6ohkHtfhYuhYgqz-31" value="Алгоритм появления блоков" style="text;html=1;align=center;verticalAlign=middle;whiteSpace=wrap;rounded=0;" parent="1" vertex="1">
          <mxGeometry x="810" y="400" width="70" height="40" as="geometry" />
        </mxCell>
        <mxCell id="y2nHu6ohkHtfhYuhYgqz-32" value="" style="endArrow=classic;html=1;rounded=0;entryX=0.75;entryY=1;entryDx=0;entryDy=0;" parent="1" target="y2nHu6ohkHtfhYuhYgqz-1" edge="1">
          <mxGeometry width="50" height="50" relative="1" as="geometry">
            <mxPoint x="380" y="720" as="sourcePoint" />
            <mxPoint x="760" y="610" as="targetPoint" />
            <Array as="points">
              <mxPoint x="380" y="660" />
              <mxPoint x="820" y="660" />
            </Array>
          </mxGeometry>
        </mxCell>
        <mxCell id="y2nHu6ohkHtfhYuhYgqz-44" style="edgeStyle=orthogonalEdgeStyle;rounded=0;orthogonalLoop=1;jettySize=auto;html=1;" parent="1" source="y2nHu6ohkHtfhYuhYgqz-34" edge="1">
          <mxGeometry relative="1" as="geometry">
            <mxPoint x="1270" y="590" as="targetPoint" />
          </mxGeometry>
        </mxCell>
        <mxCell id="y2nHu6ohkHtfhYuhYgqz-34" value="Бронирование" style="rounded=0;whiteSpace=wrap;html=1;" parent="1" vertex="1">
          <mxGeometry x="1000" y="560" width="120" height="60" as="geometry" />
        </mxCell>
        <mxCell id="y2nHu6ohkHtfhYuhYgqz-36" value="Настроенный интерфейс для брони" style="text;html=1;align=center;verticalAlign=middle;whiteSpace=wrap;rounded=0;" parent="1" vertex="1">
          <mxGeometry x="874" y="470" width="60" height="30" as="geometry" />
        </mxCell>
        <mxCell id="y2nHu6ohkHtfhYuhYgqz-37" value="" style="endArrow=classic;html=1;rounded=0;" parent="1" edge="1">
          <mxGeometry width="50" height="50" relative="1" as="geometry">
            <mxPoint x="1050" y="720" as="sourcePoint" />
            <mxPoint x="1050" y="620" as="targetPoint" />
          </mxGeometry>
        </mxCell>
        <mxCell id="y2nHu6ohkHtfhYuhYgqz-38" value="Пользователь" style="text;html=1;align=center;verticalAlign=middle;whiteSpace=wrap;rounded=0;" parent="1" vertex="1">
          <mxGeometry x="970" y="690" width="60" height="30" as="geometry" />
        </mxCell>
        <mxCell id="y2nHu6ohkHtfhYuhYgqz-41" value="" style="endArrow=classic;html=1;rounded=0;" parent="1" edge="1">
          <mxGeometry width="50" height="50" relative="1" as="geometry">
            <mxPoint x="1041" y="480" as="sourcePoint" />
            <mxPoint x="1041" y="560" as="targetPoint" />
          </mxGeometry>
        </mxCell>
        <mxCell id="y2nHu6ohkHtfhYuhYgqz-43" value="Алгоритм заполнения&lt;span style=&quot;background-color: initial;&quot;&gt;&amp;nbsp;с базой данных&lt;/span&gt;" style="text;html=1;align=center;verticalAlign=middle;whiteSpace=wrap;rounded=0;" parent="1" vertex="1">
          <mxGeometry x="1053" y="490" width="60" height="30" as="geometry" />
        </mxCell>
        <mxCell id="y2nHu6ohkHtfhYuhYgqz-45" value="Забронированный билет на рейс" style="text;html=1;align=center;verticalAlign=middle;whiteSpace=wrap;rounded=0;" parent="1" vertex="1">
          <mxGeometry x="1181" y="560" width="60" height="30" as="geometry" />
        </mxCell>
        <mxCell id="GME56L5VkVu0GnMPO73A-1" value="Алгоритм работы с базой данных" style="text;html=1;align=center;verticalAlign=middle;whiteSpace=wrap;rounded=0;" vertex="1" parent="1">
          <mxGeometry x="370" y="280" width="90" height="30" as="geometry" />
        </mxCell>
      </root>
    </mxGraphModel>
  </diagram>
</mxfile>
